<svg xmlns="http://www.w3.org/2000/svg" xmlns:xlink="http://www.w3.org/1999/xlink"><symbol id="exit" viewBox="0 0 24 24"><g fill="none">
    <path d="M14.47 20.325a.675.675 0 0 0-.674-.675H4.824a.5.5 0 0 1-.5-.5V4.85a.5.5 0 0 1 .5-.5h8.972a.675.675 0 1 0 0-1.35H5a2 2 0 0 0-2 2v14a2 2 0 0 0 2 2h8.796a.675.675 0 0 0 .675-.675Zm-1.575-8.685a.63.63 0 0 0 0 1.26h5.546l-2.171 2.215a.693.693 0 0 0 .99.97l3.054-3.115a1 1 0 0 0 0-1.4L17.26 8.455a.693.693 0 1 0-.99.97l2.171 2.215h-5.546Z" fill="#141C24"/>
</g></symbol><symbol id="letter" viewBox="0 0 20 20"><g fill="none">
    <path d="m3.906 5.624 5.56 3.992a.91.91 0 0 0 1.068 0l5.56-3.992M4.375 15.833h11.25c1.035 0 1.875-.87 1.875-1.945V6.11c0-1.073-.84-1.944-1.875-1.944H4.375c-1.036 0-1.875.87-1.875 1.944v7.778c0 1.074.84 1.945 1.875 1.945Z" stroke="#97A1AF" stroke-width="2" stroke-linecap="round" stroke-linejoin="round"/>
</g></symbol><symbol id="location" viewBox="0 0 20 20"><g fill="none">
    <path d="M10 18s6.261-5.565 6.261-9.74a6.26 6.26 0 0 0-12.522 0C3.74 12.436 10 18 10 18Z" stroke="#97A1AF" stroke-width="2"/>
    <path d="M12 8a2 2 0 1 1-4 0 2 2 0 0 1 4 0Z" stroke="#97A1AF" stroke-width="2"/>
</g></symbol><symbol id="logo" viewBox="0 0 35 36"><g fill="none">
    <path d="M17.5 32.584V19.459m11.667 0v5.644a3.005 3.005 0 0 1-1.62 2.668l-8.75 4.492a2.815 2.815 0 0 1-2.595 0l-8.75-4.492a3.004 3.004 0 0 1-1.619-2.668v-5.644m16.29-15.736a2.435 2.435 0 0 1 2.377 0l6.125 3.442a2.814 2.814 0 0 1 0 4.9L12.863 22.07a2.414 2.414 0 0 1-2.392 0l-6.096-3.441a2.814 2.814 0 0 1 0-4.9L22.123 3.723Zm8.502 14.905a2.814 2.814 0 0 0 0-4.9L12.877 3.708a2.392 2.392 0 0 0-2.377 0L4.375 7.166a2.814 2.814 0 0 0 0 4.9L22.137 22.07a2.385 2.385 0 0 0 2.378 0l6.11-3.441Z" stroke="#1975FF" stroke-width="2" stroke-linecap="round" stroke-linejoin="round"/>
    <path d="M17.5 6.516 6.562 13.078 17.5 19.641l10.938-6.563L17.5 6.516Z" fill="#1975FF"/>
</g></symbol><symbol id="plane" viewBox="0 0 20 20"><g fill="none">
    <path d="m8.553 11.669 1.861 5.384c.349 1.01 1.764 1.043 2.16.051l5.34-13.348c.372-.929-.534-1.858-1.471-1.51L2.752 7.333c-1 .371-1.003 1.785-.004 2.16l5.805 2.177Z" stroke="#97A1AF" stroke-width="2" stroke-linecap="round" stroke-linejoin="round"/>
</g></symbol><symbol id="time" viewBox="0 0 25 24"><g fill="none">
    <path d="M16.018 16.124a.743.743 0 0 0 .025-1.075l-3.25-3.249V6.75a.75.75 0 0 0-1.5 0v5.236a1 1 0 0 0 .294.707l3.406 3.406c.28.28.731.291 1.025.025Z" fill="#141C24"/>
    <path d="M12.094 22a9.676 9.676 0 0 1-3.875-.788 10.144 10.144 0 0 1-3.188-2.15 10.142 10.142 0 0 1-2.15-3.187 9.738 9.738 0 0 1-.787-3.9c0-1.367.262-2.658.787-3.875a9.994 9.994 0 0 1 2.15-3.175A10.25 10.25 0 0 1 8.22 2.788a9.737 9.737 0 0 1 3.9-.788c1.366 0 2.658.263 3.875.788a10.099 10.099 0 0 1 3.175 2.137c.9.9 1.612 1.958 2.137 3.175a9.738 9.738 0 0 1 .788 3.9 9.676 9.676 0 0 1-.788 3.875 10.25 10.25 0 0 1-2.137 3.188 9.994 9.994 0 0 1-3.175 2.15 9.737 9.737 0 0 1-3.9.787Zm0-1.5c2.366 0 4.375-.83 6.025-2.488 1.65-1.658 2.475-3.662 2.475-6.012 0-2.367-.825-4.375-2.475-6.025-1.65-1.65-3.659-2.475-6.025-2.475-2.35 0-4.354.825-6.013 2.475C4.423 7.625 3.594 9.633 3.594 12c0 2.35.829 4.354 2.487 6.012C7.74 19.671 9.744 20.5 12.094 20.5Z" fill="#141C24"/>
</g></symbol><symbol id="user" viewBox="0 0 25 24"><g fill="none">
    <path fill-rule="evenodd" clip-rule="evenodd" d="M16.094 8a4 4 0 1 1-8 0 4 4 0 0 1 8 0Zm-1.5 0a2.5 2.5 0 1 1-5 0 2.5 2.5 0 0 1 5 0ZM4.094 17.772V20h16v-2.228a4 4 0 0 0-2.596-3.745l-.137-.052a15 15 0 0 0-10.534 0l-.138.052a4 4 0 0 0-2.595 3.745Zm3.26-2.392a13.5 13.5 0 0 1 9.48 0l.138.051a2.5 2.5 0 0 1 1.622 2.341v.728h-13v-.728a2.5 2.5 0 0 1 1.622-2.34l.138-.052Z" fill="#141C24"/>
</g></symbol></svg>