<svg width="24" height="24" viewBox="0 0 24 24" fill="none" xmlns="http://www.w3.org/2000/svg">
<path d="M9.09287 11.4922L2.9445 6.69091C2.60211 6.42305 2.37802 6.03183 2.32145 5.60319C2.26488 5.17456 2.38046 4.74358 2.6428 4.40495L2.70661 4.32716L2.8698 4.15997C3.15661 3.87329 3.52205 3.67771 3.9214 3.59716C4.32075 3.51661 4.73669 3.55458 5.11833 3.70644L13.3207 6.96882L15.9369 4.17298C16.4038 3.6725 17.0454 3.36991 17.733 3.32589C18.4206 3.28187 19.1034 3.49966 19.6444 3.9356L19.799 4.07053L19.8639 4.13542C20.9391 5.21062 20.9522 6.94056 19.8834 8.00939L17.0315 10.6776L20.2939 18.882C20.4458 19.2636 20.4837 19.6796 20.4032 20.0789C20.3226 20.4783 20.127 20.8437 19.8404 21.1305L19.746 21.2249C19.584 21.3869 19.3888 21.5121 19.1735 21.5921C18.9582 21.6721 18.7277 21.7052 18.4972 21.6891C18.2667 21.673 18.0415 21.6082 17.8365 21.4988C17.6316 21.3895 17.4516 21.2381 17.3084 21.0548L12.5062 14.9055L10.3291 16.9408L11.0603 19.556C11.1513 19.8811 11.1551 20.2232 11.0712 20.5476C10.9874 20.8719 10.8189 21.1671 10.5829 21.4031C10.3221 21.6638 9.96683 21.8088 9.59521 21.8059C9.22358 21.8031 8.86606 21.6528 8.60129 21.388L7.13774 19.9245L6.96645 20.0698C6.55527 20.3846 6.04133 20.5374 5.52047 20.4997C4.9996 20.462 4.50736 20.2363 4.13554 19.8647C3.76372 19.4931 3.53769 19.001 3.49961 18.4802C3.46153 17.9593 3.61399 17.4453 3.92856 17.0339L4.07487 16.8616L2.61133 15.398C2.34655 15.1333 2.19622 14.7758 2.1934 14.4041C2.19058 14.0325 2.3355 13.6772 2.59628 13.4164C3.07711 12.9356 3.78213 12.7537 4.44338 12.9391L7.05756 13.6693L9.09287 11.4922ZM3.86713 5.1573L3.75407 5.27236C3.71771 5.31967 3.70182 5.37976 3.70989 5.43944C3.71796 5.49912 3.74932 5.55353 3.7971 5.59072L11.1624 11.3434L7.51538 15.248L4.08506 14.2877C3.9987 14.2637 3.90787 14.2628 3.82176 14.2851C3.73564 14.3074 3.65728 14.3521 3.59461 14.4148L6.02254 16.8427L5.08893 17.8442C4.94967 17.9834 4.87229 18.1732 4.87379 18.3716C4.8753 18.5701 4.95558 18.761 5.09697 18.9024C5.23836 19.0438 5.42927 19.124 5.62772 19.1255C5.82617 19.1271 6.01589 19.0497 6.15515 18.9104L7.15464 17.9748L9.58457 20.4047L9.65131 20.322C9.68956 20.2626 9.7147 20.1955 9.72509 20.1252C9.73549 20.055 9.7309 19.9831 9.71163 19.9143L8.75031 16.483L12.6549 12.8359L18.4256 20.2232C18.5155 20.313 18.6591 20.3151 18.7476 20.2266L18.842 20.1322C18.9376 20.0365 19.0028 19.9146 19.0296 19.7815C19.0564 19.6483 19.0436 19.5096 18.9929 19.3824L15.378 10.2906L18.8949 7.00321C19.0179 6.88051 19.1151 6.73439 19.1809 6.57321C19.2468 6.41204 19.28 6.23897 19.2787 6.06393C19.2773 5.88888 19.2415 5.71529 19.1732 5.5531C19.1049 5.3909 19.0055 5.24329 18.8806 5.1187L18.8487 5.08676C18.72 4.96616 18.5691 4.87178 18.4048 4.80902C18.2404 4.74626 18.0658 4.71635 17.8908 4.721C17.7159 4.72566 17.5442 4.76478 17.3854 4.83614C17.2267 4.9075 17.084 5.00969 16.9657 5.13686L13.7058 8.62233L4.61795 5.00547C4.49073 4.95474 4.35204 4.942 4.21885 4.96879C4.08567 4.99558 3.96378 5.06075 3.86811 5.15632" fill="#97A1AF"/>
</svg>
