<svg viewBox="0 0 35 36" fill="none" xmlns="http://www.w3.org/2000/svg">
<path d="M17.5 32.5838V19.4588M29.1666 19.4588V25.1026C29.1672 25.653 29.0165 26.193 28.7311 26.6637C28.4456 27.1343 28.0363 27.5175 27.5479 27.7713L18.7979 32.263C18.397 32.4713 17.9518 32.5801 17.5 32.5801C17.0481 32.5801 16.603 32.4713 16.202 32.263L7.45205 27.7713C6.96363 27.5175 6.55434 27.1343 6.26887 26.6637C5.98341 26.193 5.83273 25.653 5.8333 25.1026V19.4588M22.1229 3.72339C22.4861 3.52031 22.8953 3.41368 23.3114 3.41368C23.7276 3.41368 24.1368 3.52031 24.5 3.72339L30.625 7.16506C31.0588 7.41035 31.4196 7.76642 31.6707 8.19687C31.9218 8.62732 32.0541 9.11672 32.0541 9.61506C32.0541 10.1134 31.9218 10.6028 31.6707 11.0332C31.4196 11.4637 31.0588 11.8198 30.625 12.0651L12.8625 22.0692C12.4982 22.277 12.086 22.3863 11.6666 22.3863C11.2472 22.3863 10.8351 22.277 10.4708 22.0692L4.37497 18.6276C3.94118 18.3823 3.5803 18.0262 3.32921 17.5957C3.07811 17.1653 2.9458 16.6759 2.9458 16.1776C2.9458 15.6792 3.07811 15.1898 3.32921 14.7594C3.5803 14.3289 3.94118 13.9729 4.37497 13.7276L22.1229 3.72339ZM30.625 18.6276C31.0588 18.3823 31.4196 18.0262 31.6707 17.5957C31.9218 17.1653 32.0541 16.6759 32.0541 16.1776C32.0541 15.6792 31.9218 15.1898 31.6707 14.7594C31.4196 14.3289 31.0588 13.9729 30.625 13.7276L12.8771 3.70881C12.5152 3.50159 12.1055 3.39258 11.6885 3.39258C11.2715 3.39258 10.8618 3.50159 10.5 3.70881L4.37497 7.16506C3.94118 7.41035 3.5803 7.76642 3.32921 8.19687C3.07811 8.62732 2.9458 9.11672 2.9458 9.61506C2.9458 10.1134 3.07811 10.6028 3.32921 11.0332C3.5803 11.4637 3.94118 11.8198 4.37497 12.0651L22.1375 22.0692C22.4991 22.277 22.9089 22.3863 23.326 22.3863C23.7431 22.3863 24.1529 22.277 24.5145 22.0692L30.625 18.6276Z" stroke="#1975FF" stroke-width="2" stroke-linecap="round" stroke-linejoin="round"/>
<path d="M17.5 6.51562L6.5625 13.0781L17.5 19.6406L28.4375 13.0781L17.5 6.51562Z" fill="#1975FF"/>
</svg>
